<svg width="492" height="179" viewBox="0 0 492 179" fill="none" xmlns="http://www.w3.org/2000/svg">
<path d="M125.336 49.8633L53.1211 49.8633V49.8781C47.9759 50.1598 43.8906 54.4212 43.8906 59.6367C43.8906 65.0344 48.2663 69.4102 53.6641 69.4102C58.6947 69.4102 62.8377 65.6093 63.3778 60.7227L115.622 60.7227C116.162 65.6093 120.305 69.4102 125.336 69.4102C130.734 69.4102 135.109 65.0344 135.109 59.6367C135.109 54.239 130.734 49.8633 125.336 49.8633Z" fill="white"/>
<path d="M69.9531 69.4102C66.9544 69.4102 64.5234 71.8411 64.5234 74.8398V123.707C64.5234 126.706 66.9544 129.137 69.9531 129.137C72.9519 129.137 75.3828 126.706 75.3828 123.707V74.8398C75.3828 71.8411 72.9519 69.4102 69.9531 69.4102Z" fill="white"/>
<path d="M89.5 69.4102C86.5013 69.4102 84.0703 71.8411 84.0703 74.8398V123.707C84.0703 126.706 86.5013 129.137 89.5 129.137C92.4987 129.137 94.9297 126.706 94.9297 123.707V74.8398C94.9297 71.8411 92.4987 69.4102 89.5 69.4102Z" fill="white"/>
<path d="M103.617 74.8398C103.617 71.8411 106.048 69.4102 109.047 69.4102C112.046 69.4102 114.477 71.8411 114.477 74.8398V123.707C114.477 126.706 112.046 129.137 109.047 129.137C106.048 129.137 103.617 126.706 103.617 123.707V74.8398Z" fill="white"/>
<path d="M232.033 92.354V94.8069L226.26 99.6683V118.221C213.909 122.949 204.735 125 196.456 125C171.933 125 159 106.313 159 89.5445C159 72.6865 172.112 54 198.783 54C207.867 54 216.817 56.1407 222.769 58.549L225.41 75.8531H222.098L201.692 58.549C185.626 61.4032 176.945 72.4189 176.945 88.5635C176.945 105.912 186.835 118.4 200.439 118.4C203.035 118.4 205.719 117.909 208.449 117.062V102.656L199.007 94.807V92.3541L232.033 92.354ZM296.652 111.977L307.393 121.209V123.751H285.42L269.4 92.577C268.326 92.6216 267.207 92.6216 266.043 92.6216H262.105V112.155L272.666 121.209V123.751H236.06V121.209L246.667 112.155V66.8437L236.06 57.7904V55.2484H267.61C275.486 55.2484 297.816 55.2484 297.816 73.6673C297.816 82.8101 292.312 88.6967 280.99 91.2391L287.568 94.0933L296.652 111.977ZM265.418 86.3778C273.205 86.3778 281.126 83.702 281.126 73.7565C281.126 65.3275 275.487 61.5813 262.107 61.4923V86.3778H265.418ZM347.312 57.7922L336.75 66.8455V112.157L347.312 121.21V123.752H310.706V121.21L321.312 112.157V66.8455L310.706 57.7922V55.2502H347.312V57.7922ZM407.769 109.078L422 121.209V123.751H386.289V121.209L393.718 114.876L381.545 95.5206L370 113.627L378.86 121.253L379.084 123.751H351.965L352.189 121.253L364.674 110.416L377.831 89.6335L365.077 69.2522L351.607 57.7904V55.2483H386.87V57.7904L379.128 64.3909L390.45 82.0517L401.101 65.3723L392.285 57.7461L392.061 55.2486H419.18L418.956 57.7461L406.426 68.5832L394.209 87.9388L407.769 109.078Z" fill="white"/>
</svg>
