<svg width="256" height="256" viewBox="0 0 256 256" fill="none" xmlns="http://www.w3.org/2000/svg">
<path d="M194 55L61 55V55.0273C51.524 55.5462 44 63.3944 44 73C44 82.9411 52.0589 91 62 91C71.2651 91 78.8953 83.9999 79.8901 75L176.11 75C177.105 83.9999 184.735 91 194 91C203.941 91 212 82.9411 212 73C212 63.0589 203.941 55 194 55Z" fill="white"/>
<path d="M92 91C86.4772 91 82 95.4772 82 101V191C82 196.523 86.4772 201 92 201C97.5228 201 102 196.523 102 191V101C102 95.4772 97.5228 91 92 91Z" fill="white"/>
<path d="M128 91C122.477 91 118 95.4772 118 101V191C118 196.523 122.477 201 128 201C133.523 201 138 196.523 138 191V101C138 95.4772 133.523 91 128 91Z" fill="white"/>
<path d="M154 101C154 95.4772 158.477 91 164 91C169.523 91 174 95.4772 174 101V191C174 196.523 169.523 201 164 201C158.477 201 154 196.523 154 191V101Z" fill="white"/>
</svg>
